<?xml version="1.0" encoding="UTF-8"?>
<svg id="Layer_1" data-name="Layer 1" xmlns="http://www.w3.org/2000/svg" viewBox="0 0 177.84 72.11">
  <defs>
    <style>
      .cls-1 {
        fill: #fff;
      }
    </style>
  </defs>
  <path class="cls-1" d="m40.35,22.05h-11.51v-9.99c0-2.61-.48-4.67-1.45-6.18-.97-1.51-2.36-2.27-4.18-2.27s-3.22.77-4.22,2.32c-1,1.54-1.49,3.59-1.49,6.13v20.08h13.36v4.84h-13.36v35.12H3.52v-35.12H0v-4.84h3.52v-14.32c0-5.49,1.92-9.84,5.76-13.03C13.12,1.6,17.4,0,22.11,0s8.94,1.7,12.66,5.1c3.72,3.4,5.58,7.84,5.58,13.34v3.6h0Z"/>
  <path class="cls-1" d="m78.33,72.1h-30.06V1.04h13.89v66.22h16.17v4.84Z"/>
  <path class="cls-1" d="m98.89,1.04v71.06h-13.98V1.04h13.98Z"/>
  <path class="cls-1" d="m151.46,72.1h-13.27v-13.9c0-14.97-4.37-23-13.1-24.1v38h-13.89V1.04h13.89v28.73c2.87-.75,5.46-2.61,7.78-5.56,2.31-2.95,3.47-6.38,3.47-10.3V1.04h13.98v5.36c0,5.01-1.3,9.8-3.91,14.37-2.61,4.57-5.99,7.91-10.15,10.04,9.73,2.88,14.8,11.4,15.21,25.54v15.76h0Z"/>
  <path class="cls-1" d="m151.46,29.77c2.87-.75,5.46-2.61,7.78-5.56,2.31-2.95,3.47-6.38,3.47-10.3V1.04h13.98v5.36c0,5.01-1.3,9.8-3.91,14.37-2.61,4.57-5.99,7.91-10.15,10.04,9.73,2.88,14.8,11.4,15.21,25.54v15.76h-13.27v-13.9c0-14.97-4.37-23-13.1-24.1"/>
</svg>